<mxfile host="app.diagrams.net" agent="Mozilla/5.0 (X11; Ubuntu; Linux x86_64; rv:140.0) Gecko/20100101 Firefox/140.0" version="28.0.6">
  <diagram name="Page-1" id="DC7YIubZ44iMNXCuPgpX">
    <mxGraphModel dx="1716" dy="699" grid="1" gridSize="10" guides="1" tooltips="1" connect="1" arrows="1" fold="1" page="1" pageScale="1" pageWidth="1400" pageHeight="850" math="0" shadow="0">
      <root>
        <mxCell id="0" />
        <mxCell id="1" parent="0" />
        <mxCell id="7h-a7AoHDaQ5-l8UsL0Z-1" value="Customer" style="shape=table;childLayout=tableLayout;startSize=40;collapsible=0;recursiveResize=0;expand=0;fontSize=16;fontStyle=1;points=[[0,0,0,0,0],[0,0.25,0,0,0],[0,0.5,0,0,0],[0,0.75,0,0,0],[0,1,0,0,0],[0.25,0,0,0,0],[0.25,1,0,0,0],[0.5,0,0,0,0],[0.5,1,0,0,0],[0.75,0,0,0,0],[0.75,1,0,0,0],[1,0,0,0,0],[1,0.25,0,0,0],[1,0.5,0,0,0],[1,0.75,0,0,0],[1,1,0,0,0]];" vertex="1" parent="1">
          <mxGeometry x="430" y="140" width="2070" height="440" as="geometry" />
        </mxCell>
        <mxCell id="7h-a7AoHDaQ5-l8UsL0Z-2" value="Sales Admin" style="shape=tableRow;horizontal=0;swimlaneHead=0;swimlaneBody=0;top=0;left=0;strokeColor=inherit;bottom=0;right=0;dropTarget=0;fontStyle=1;fillColor=none;points=[[0,0.5],[1,0.5]];portConstraint=eastwest;startSize=40;collapsible=0;recursiveResize=0;expand=0;fontSize=16;" vertex="1" parent="7h-a7AoHDaQ5-l8UsL0Z-1">
          <mxGeometry y="40" width="2070" height="400" as="geometry" />
        </mxCell>
        <mxCell id="7h-a7AoHDaQ5-l8UsL0Z-3" value="Details Tab" style="swimlane;swimlaneHead=0;swimlaneBody=0;fontStyle=1;strokeColor=inherit;connectable=0;fillColor=none;startSize=40;collapsible=0;recursiveResize=0;expand=0;fontSize=16;" vertex="1" parent="7h-a7AoHDaQ5-l8UsL0Z-2">
          <mxGeometry x="40" width="1185" height="400" as="geometry">
            <mxRectangle width="1185" height="400" as="alternateBounds" />
          </mxGeometry>
        </mxCell>
        <mxCell id="7h-a7AoHDaQ5-l8UsL0Z-67" value="Select&lt;div&gt;Customer Group&lt;/div&gt;" style="rounded=0;whiteSpace=wrap;html=1;" vertex="1" parent="7h-a7AoHDaQ5-l8UsL0Z-3">
          <mxGeometry x="434" y="70" width="120" height="60" as="geometry" />
        </mxCell>
        <mxCell id="7h-a7AoHDaQ5-l8UsL0Z-4" value="Address and Contact Tab" style="swimlane;swimlaneHead=0;swimlaneBody=0;fontStyle=1;strokeColor=inherit;connectable=0;fillColor=none;startSize=40;collapsible=0;recursiveResize=0;expand=0;fontSize=16;" vertex="1" parent="7h-a7AoHDaQ5-l8UsL0Z-2">
          <mxGeometry x="1225" width="315" height="400" as="geometry">
            <mxRectangle width="315" height="400" as="alternateBounds" />
          </mxGeometry>
        </mxCell>
        <mxCell id="7h-a7AoHDaQ5-l8UsL0Z-5" value="Accounting Tab" style="swimlane;swimlaneHead=0;swimlaneBody=0;fontStyle=1;strokeColor=inherit;connectable=0;fillColor=none;startSize=40;collapsible=0;recursiveResize=0;expand=0;fontSize=16;" vertex="1" parent="7h-a7AoHDaQ5-l8UsL0Z-2">
          <mxGeometry x="1540" width="210" height="400" as="geometry">
            <mxRectangle width="210" height="400" as="alternateBounds" />
          </mxGeometry>
        </mxCell>
        <mxCell id="7h-a7AoHDaQ5-l8UsL0Z-6" value="Choose Incoterms&amp;nbsp;" style="whiteSpace=wrap;html=1;" vertex="1" parent="7h-a7AoHDaQ5-l8UsL0Z-5">
          <mxGeometry x="45" y="70" width="120" height="60" as="geometry" />
        </mxCell>
        <mxCell id="7h-a7AoHDaQ5-l8UsL0Z-7" value="Sales team Tab" style="swimlane;swimlaneHead=0;swimlaneBody=0;fontStyle=1;strokeColor=inherit;connectable=0;fillColor=none;startSize=40;collapsible=0;recursiveResize=0;expand=0;fontSize=16;" vertex="1" parent="7h-a7AoHDaQ5-l8UsL0Z-2">
          <mxGeometry x="1750" width="320" height="400" as="geometry">
            <mxRectangle width="320" height="400" as="alternateBounds" />
          </mxGeometry>
        </mxCell>
        <mxCell id="7h-a7AoHDaQ5-l8UsL0Z-8" value="" style="edgeStyle=orthogonalEdgeStyle;rounded=0;orthogonalLoop=1;jettySize=auto;html=1;" edge="1" parent="7h-a7AoHDaQ5-l8UsL0Z-7" source="7h-a7AoHDaQ5-l8UsL0Z-9" target="7h-a7AoHDaQ5-l8UsL0Z-10">
          <mxGeometry relative="1" as="geometry" />
        </mxCell>
        <mxCell id="7h-a7AoHDaQ5-l8UsL0Z-9" value="Choose Sales Agent" style="whiteSpace=wrap;html=1;" vertex="1" parent="7h-a7AoHDaQ5-l8UsL0Z-7">
          <mxGeometry x="30" y="70" width="120" height="60" as="geometry" />
        </mxCell>
        <mxCell id="7h-a7AoHDaQ5-l8UsL0Z-10" value="Save the Customer" style="rounded=0;whiteSpace=wrap;html=1;" vertex="1" parent="7h-a7AoHDaQ5-l8UsL0Z-7">
          <mxGeometry x="180" y="70" width="120" height="60" as="geometry" />
        </mxCell>
        <mxCell id="7h-a7AoHDaQ5-l8UsL0Z-11" value="" style="edgeStyle=orthogonalEdgeStyle;rounded=0;orthogonalLoop=1;jettySize=auto;html=1;" edge="1" parent="7h-a7AoHDaQ5-l8UsL0Z-2" source="7h-a7AoHDaQ5-l8UsL0Z-6" target="7h-a7AoHDaQ5-l8UsL0Z-9">
          <mxGeometry relative="1" as="geometry" />
        </mxCell>
        <mxCell id="7h-a7AoHDaQ5-l8UsL0Z-21" value="" style="edgeStyle=orthogonalEdgeStyle;rounded=0;orthogonalLoop=1;jettySize=auto;html=1;" edge="1" parent="1" source="7h-a7AoHDaQ5-l8UsL0Z-22" target="7h-a7AoHDaQ5-l8UsL0Z-24">
          <mxGeometry relative="1" as="geometry" />
        </mxCell>
        <mxCell id="7h-a7AoHDaQ5-l8UsL0Z-22" value="Start" style="ellipse;whiteSpace=wrap;html=1;aspect=fixed;" vertex="1" parent="1">
          <mxGeometry x="480" y="240" width="80" height="80" as="geometry" />
        </mxCell>
        <mxCell id="7h-a7AoHDaQ5-l8UsL0Z-23" value="" style="edgeStyle=orthogonalEdgeStyle;rounded=0;orthogonalLoop=1;jettySize=auto;html=1;" edge="1" parent="1" source="7h-a7AoHDaQ5-l8UsL0Z-24" target="7h-a7AoHDaQ5-l8UsL0Z-26">
          <mxGeometry relative="1" as="geometry" />
        </mxCell>
        <mxCell id="7h-a7AoHDaQ5-l8UsL0Z-24" value="Click Add Customer" style="rounded=0;whiteSpace=wrap;html=1;" vertex="1" parent="1">
          <mxGeometry x="600" y="250" width="120" height="60" as="geometry" />
        </mxCell>
        <mxCell id="7h-a7AoHDaQ5-l8UsL0Z-68" style="edgeStyle=orthogonalEdgeStyle;rounded=0;orthogonalLoop=1;jettySize=auto;html=1;exitX=1;exitY=0.5;exitDx=0;exitDy=0;entryX=0;entryY=0.5;entryDx=0;entryDy=0;" edge="1" parent="1" source="7h-a7AoHDaQ5-l8UsL0Z-26" target="7h-a7AoHDaQ5-l8UsL0Z-67">
          <mxGeometry relative="1" as="geometry" />
        </mxCell>
        <mxCell id="7h-a7AoHDaQ5-l8UsL0Z-26" value="Enter Customer Name" style="rounded=0;whiteSpace=wrap;html=1;" vertex="1" parent="1">
          <mxGeometry x="751" y="250" width="120" height="60" as="geometry" />
        </mxCell>
        <mxCell id="7h-a7AoHDaQ5-l8UsL0Z-40" value="" style="edgeStyle=orthogonalEdgeStyle;rounded=0;orthogonalLoop=1;jettySize=auto;html=1;" edge="1" parent="1" source="7h-a7AoHDaQ5-l8UsL0Z-41" target="7h-a7AoHDaQ5-l8UsL0Z-46">
          <mxGeometry relative="1" as="geometry" />
        </mxCell>
        <mxCell id="7h-a7AoHDaQ5-l8UsL0Z-41" value="Select&lt;div&gt;Territory&lt;/div&gt;" style="rhombus;whiteSpace=wrap;html=1;" vertex="1" parent="1">
          <mxGeometry x="1250" y="240" width="80" height="80" as="geometry" />
        </mxCell>
        <mxCell id="7h-a7AoHDaQ5-l8UsL0Z-44" value="Choose Customer Group" style="rounded=0;whiteSpace=wrap;html=1;" vertex="1" parent="1">
          <mxGeometry x="1059" y="250" width="120" height="60" as="geometry" />
        </mxCell>
        <mxCell id="7h-a7AoHDaQ5-l8UsL0Z-45" style="edgeStyle=orthogonalEdgeStyle;rounded=0;orthogonalLoop=1;jettySize=auto;html=1;exitX=1;exitY=0.5;exitDx=0;exitDy=0;entryX=0;entryY=0.5;entryDx=0;entryDy=0;" edge="1" parent="1" source="7h-a7AoHDaQ5-l8UsL0Z-46" target="7h-a7AoHDaQ5-l8UsL0Z-51">
          <mxGeometry relative="1" as="geometry" />
        </mxCell>
        <mxCell id="7h-a7AoHDaQ5-l8UsL0Z-46" value="Choose Territory" style="whiteSpace=wrap;html=1;" vertex="1" parent="1">
          <mxGeometry x="1370" y="250" width="120" height="60" as="geometry" />
        </mxCell>
        <mxCell id="7h-a7AoHDaQ5-l8UsL0Z-47" value="No" style="text;html=1;align=center;verticalAlign=middle;resizable=0;points=[];autosize=1;strokeColor=none;fillColor=none;" vertex="1" parent="1">
          <mxGeometry x="1290" y="325" width="40" height="30" as="geometry" />
        </mxCell>
        <mxCell id="7h-a7AoHDaQ5-l8UsL0Z-48" value="Enter Territory Name , Parent Territory and Territoty Manager" style="whiteSpace=wrap;html=1;" vertex="1" parent="1">
          <mxGeometry x="1230" y="455" width="120" height="60" as="geometry" />
        </mxCell>
        <mxCell id="7h-a7AoHDaQ5-l8UsL0Z-49" style="edgeStyle=orthogonalEdgeStyle;rounded=0;orthogonalLoop=1;jettySize=auto;html=1;entryX=0.375;entryY=0.983;entryDx=0;entryDy=0;entryPerimeter=0;" edge="1" parent="1" source="7h-a7AoHDaQ5-l8UsL0Z-48" target="7h-a7AoHDaQ5-l8UsL0Z-46">
          <mxGeometry relative="1" as="geometry" />
        </mxCell>
        <mxCell id="7h-a7AoHDaQ5-l8UsL0Z-50" value="" style="edgeStyle=orthogonalEdgeStyle;rounded=0;orthogonalLoop=1;jettySize=auto;html=1;" edge="1" parent="1" source="7h-a7AoHDaQ5-l8UsL0Z-51" target="7h-a7AoHDaQ5-l8UsL0Z-53">
          <mxGeometry relative="1" as="geometry" />
        </mxCell>
        <mxCell id="7h-a7AoHDaQ5-l8UsL0Z-51" value="Select&amp;nbsp; Billing Currency" style="whiteSpace=wrap;html=1;" vertex="1" parent="1">
          <mxGeometry x="1520" y="250" width="120" height="60" as="geometry" />
        </mxCell>
        <mxCell id="7h-a7AoHDaQ5-l8UsL0Z-52" value="" style="edgeStyle=orthogonalEdgeStyle;rounded=0;orthogonalLoop=1;jettySize=auto;html=1;" edge="1" parent="1" source="7h-a7AoHDaQ5-l8UsL0Z-53" target="7h-a7AoHDaQ5-l8UsL0Z-55">
          <mxGeometry relative="1" as="geometry" />
        </mxCell>
        <mxCell id="7h-a7AoHDaQ5-l8UsL0Z-53" value="Create&amp;nbsp; Address&amp;nbsp;" style="whiteSpace=wrap;html=1;" vertex="1" parent="1">
          <mxGeometry x="1670" y="250" width="120" height="60" as="geometry" />
        </mxCell>
        <mxCell id="7h-a7AoHDaQ5-l8UsL0Z-54" style="edgeStyle=orthogonalEdgeStyle;rounded=0;orthogonalLoop=1;jettySize=auto;html=1;entryX=0;entryY=0.5;entryDx=0;entryDy=0;" edge="1" parent="1" source="7h-a7AoHDaQ5-l8UsL0Z-55" target="7h-a7AoHDaQ5-l8UsL0Z-58">
          <mxGeometry relative="1" as="geometry" />
        </mxCell>
        <mxCell id="7h-a7AoHDaQ5-l8UsL0Z-55" value="Enter Name,Ad&lt;span style=&quot;color: rgba(0, 0, 0, 0); font-family: monospace; font-size: 0px; text-align: start; text-wrap-mode: nowrap;&quot;&gt;%3CmxGraphModel%3E%3Croot%3E%3CmxCell%20id%3D%220%22%2F%3E%3CmxCell%20id%3D%221%22%20parent%3D%220%22%2F%3E%3CmxCell%20id%3D%222%22%20value%3D%22Enter%20Name%2CAddress%2CCity%20for%20Address%22%20style%3D%22whiteSpace%3Dwrap%3Bhtml%3D1%3B%22%20vertex%3D%221%22%20parent%3D%221%22%3E%3CmxGeometry%20x%3D%221260%22%20y%3D%22270%22%20width%3D%22120%22%20height%3D%2260%22%20as%3D%22geometry%22%2F%3E%3C%2FmxCell%3E%3C%2Froot%3E%3C%2FmxGraphModel%3E&lt;/span&gt;dress,City&amp;nbsp;" style="whiteSpace=wrap;html=1;" vertex="1" parent="1">
          <mxGeometry x="1670" y="345" width="120" height="60" as="geometry" />
        </mxCell>
        <mxCell id="7h-a7AoHDaQ5-l8UsL0Z-56" value="" style="edgeStyle=orthogonalEdgeStyle;rounded=0;orthogonalLoop=1;jettySize=auto;html=1;" edge="1" parent="1" source="7h-a7AoHDaQ5-l8UsL0Z-58" target="7h-a7AoHDaQ5-l8UsL0Z-59">
          <mxGeometry relative="1" as="geometry" />
        </mxCell>
        <mxCell id="7h-a7AoHDaQ5-l8UsL0Z-57" value="" style="edgeStyle=orthogonalEdgeStyle;rounded=0;orthogonalLoop=1;jettySize=auto;html=1;" edge="1" parent="1" source="7h-a7AoHDaQ5-l8UsL0Z-58" target="7h-a7AoHDaQ5-l8UsL0Z-6">
          <mxGeometry relative="1" as="geometry" />
        </mxCell>
        <mxCell id="7h-a7AoHDaQ5-l8UsL0Z-58" value="Create and Choose Contact" style="whiteSpace=wrap;html=1;" vertex="1" parent="1">
          <mxGeometry x="1820" y="250" width="120" height="60" as="geometry" />
        </mxCell>
        <mxCell id="7h-a7AoHDaQ5-l8UsL0Z-59" value="Enter Name&amp;nbsp;" style="whiteSpace=wrap;html=1;" vertex="1" parent="1">
          <mxGeometry x="1820" y="345" width="120" height="60" as="geometry" />
        </mxCell>
        <mxCell id="7h-a7AoHDaQ5-l8UsL0Z-60" value="" style="edgeStyle=orthogonalEdgeStyle;rounded=0;orthogonalLoop=1;jettySize=auto;html=1;" edge="1" parent="1" source="7h-a7AoHDaQ5-l8UsL0Z-61" target="7h-a7AoHDaQ5-l8UsL0Z-48">
          <mxGeometry relative="1" as="geometry" />
        </mxCell>
        <mxCell id="7h-a7AoHDaQ5-l8UsL0Z-61" value="Create Territory" style="rounded=0;whiteSpace=wrap;html=1;" vertex="1" parent="1">
          <mxGeometry x="1230" y="355" width="120" height="60" as="geometry" />
        </mxCell>
        <mxCell id="7h-a7AoHDaQ5-l8UsL0Z-62" value="" style="endArrow=classic;html=1;rounded=0;entryX=-0.025;entryY=1;entryDx=0;entryDy=0;entryPerimeter=0;exitX=0.5;exitY=1;exitDx=0;exitDy=0;" edge="1" parent="1" source="7h-a7AoHDaQ5-l8UsL0Z-41" target="7h-a7AoHDaQ5-l8UsL0Z-47">
          <mxGeometry width="50" height="50" relative="1" as="geometry">
            <mxPoint x="1290" y="325" as="sourcePoint" />
            <mxPoint x="1340" y="275" as="targetPoint" />
          </mxGeometry>
        </mxCell>
        <mxCell id="7h-a7AoHDaQ5-l8UsL0Z-65" value="Yes" style="text;html=1;align=center;verticalAlign=middle;resizable=0;points=[];autosize=1;strokeColor=none;fillColor=none;" vertex="1" parent="1">
          <mxGeometry x="1330" y="243" width="40" height="30" as="geometry" />
        </mxCell>
        <mxCell id="7h-a7AoHDaQ5-l8UsL0Z-69" style="edgeStyle=orthogonalEdgeStyle;rounded=0;orthogonalLoop=1;jettySize=auto;html=1;exitX=1;exitY=0.5;exitDx=0;exitDy=0;entryX=0;entryY=0.5;entryDx=0;entryDy=0;" edge="1" parent="1" source="7h-a7AoHDaQ5-l8UsL0Z-67" target="7h-a7AoHDaQ5-l8UsL0Z-44">
          <mxGeometry relative="1" as="geometry" />
        </mxCell>
      </root>
    </mxGraphModel>
  </diagram>
</mxfile>
